<svg t="1711077676583" class="icon" viewBox="0 0 1025 1024" version="1.1" xmlns="http://www.w3.org/2000/svg" p-id="1443"
  width="200" height="200">
  <path
    d="M1003.560275 445.764914H888.742654c-6.519581 0-12.75526 2.828869-17.155724 7.797135L561.293425 811.185884V12.998604c0-6.23568-5.100076-11.335756-11.335756-11.335756h-85.048588c-6.23568 0-11.335756 5.100076-11.335756 11.335756v798.197419L143.27982 453.562049c-4.248374-4.958126-10.494193-7.797134-17.145584-7.797135H11.316615c-9.64249 0-14.884517 11.477706-8.506887 18.70704l470.46429 542.189815c17.997287 20.836296 50.321428 20.836296 68.460665 0l470.332479-542.189815c6.37763-7.371283 1.135603-18.707039-8.506887-18.70704z m0 0"
    p-id="1444"></path>
</svg>