<?xml version="1.0" standalone="no"?><!DOCTYPE svg PUBLIC "-//W3C//DTD SVG 1.1//EN" "http://www.w3.org/Graphics/SVG/1.1/DTD/svg11.dtd"><svg t="1710406147953" class="icon" viewBox="0 0 1024 1024" version="1.1" xmlns="http://www.w3.org/2000/svg" p-id="4418" xmlns:xlink="http://www.w3.org/1999/xlink" width="200" height="200"><path d="M512 0a512 512 0 1 1 0 1024A512 512 0 0 1 512 0z m20.416 747.392a179.648 179.648 0 0 0-59.52-2.304c-38.4 6.208-80.576 26.368-114.496 54.848l-10.048 8.448 8.832 1.408c46.272 7.168 58.752 13.504 90.88 46.4 18.432 18.944 24.704 23.104 40 27.008 22.528 5.76 44.736-4.8 52.352-24.704 3.392-8.96 2.944-23.68-0.96-31.104-9.28-17.664-36.352-23.36-49.408-10.432-10.88 10.752-7.68 27.008 5.824 29.76 3.136 0.64 3.008 0.512-0.768-1.216-5.952-2.624-8.512-6.336-8.576-12.16 0-13.824 15.808-21.568 30.592-14.912 10.816 4.8 15.104 11.136 15.104 22.272a27.904 27.904 0 0 1-31.68 27.84 46.656 46.656 0 0 1-26.24-13.632c-15.04-16.896-9.152-43.52 11.84-53.76 16-7.744 37.12-5.824 53.632 4.864 18.944 12.288 26.944 23.552 43.264 60.48 5.312 12.032 12.16 25.6 15.168 30.08 15.36 23.04 33.92 34.24 56.192 34.24 12.288 0 21.504-2.24 33.152-8 8.64-4.288 20.864-12.416 19.968-13.312a31.616 31.616 0 0 0-7.936 2.432c-24.32 9.472-49.024 8.832-63.36-1.664-9.088-6.528-16.384-19.648-20.096-36.032-0.64-2.816-2.816-15.36-4.8-27.84-4.992-31.616-9.792-45.824-20.928-62.08-11.456-16.704-33.408-30.72-57.984-36.928z m163.392-166.208c-0.64 0-1.856 2.048-2.56 4.48-6.656 23.424-3.84 48.448 8.32 74.368 6.08 12.992 12.16 22.848 36.928 59.776 21.248 31.744 31.808 50.56 36.992 65.92 8.448 25.152 7.168 47.744-3.968 71.04a35.52 35.52 0 0 0-3.968 9.92c0.448 0 4.864-2.176 9.728-4.8 33.28-17.92 56.512-48.64 66.56-87.744 3.2-12.416 4.48-42.048 2.304-54.4a116.48 116.48 0 0 0-24.32-55.168c-14.4-17.92-35.712-33.536-72.96-53.76a783.68 783.68 0 0 1-46.72-26.24 24.64 24.64 0 0 0-6.4-3.392zM192 192c-0.256 0 6.848 8.832 15.808 19.648 107.2 129.344 181.056 182.72 189.248 193.92 6.784 9.344 4.224 17.728-7.36 24.32-6.464 3.648-19.776 7.296-26.368 7.296-7.552 0-10.112-2.88-10.112-2.88-4.352-4.096-6.848-3.392-29.184-42.88-31.104-47.872-57.088-87.68-57.792-88.32-1.664-1.536-1.6-1.472 54.592 98.56 9.088 20.8 1.792 28.416 1.792 31.36 0 6.08-1.6 9.28-9.152 17.536-12.48 13.888-18.048 29.44-22.08 61.632-4.48 36.096-17.28 61.632-52.48 105.28-20.544 25.6-23.936 30.208-29.12 40.512-6.592 12.992-8.32 20.224-9.088 36.608-0.768 17.28 0.704 28.544 6.016 45.056 4.672 14.528 9.6 24.064 21.952 43.2 10.752 16.512 16.96 28.8 16.96 33.6 0 3.84 0.704 3.84 17.28 0.128 39.872-8.96 72.128-24.64 90.304-43.904 11.264-11.904 13.888-18.56 14.016-34.816 0-10.688-0.32-12.928-3.2-19.072-4.8-9.984-13.376-18.304-32.32-31.168-24.896-16.896-35.52-30.528-38.4-49.216-2.432-15.36 0.32-26.176 14.08-54.784 14.272-29.696 17.792-42.304 20.16-72.192 1.536-19.328 3.712-26.88 9.28-33.024 5.76-6.4 11.072-8.576 25.472-10.496 23.488-3.2 38.4-9.216 50.688-20.48A43.712 43.712 0 0 0 428.8 414.08l0.576-10.752-6.016-6.912-2.752-3.008C388.16 359.68 193.28 192 192 192z m40.128 501.12c0-6.656 12.032-9.024 19.712-3.968a18.944 18.944 0 0 1 5.888 25.024c-4.672 8.256-13.632 10.944-19.904 6.016-3.904-3.008-4.16-7.488-0.768-12.608 3.328-4.992 3.072-7.488-1.28-9.664-2.496-1.28-3.648-2.752-3.648-4.8z m420.8-133.12l2.304 6.912c1.28 3.84 3.264 12.416 4.48 19.2 7.232 43.264-15.616 78.272-60.032 91.776a545.472 545.472 0 0 1-41.216 8c-36.352 6.016-52.608 10.24-68.864 18.112-11.52 5.504-25.6 13.824-24.704 14.656a16.64 16.64 0 0 0 5.824-1.408c20.544-7.168 43.456-10.88 78.208-12.672 13.76-0.704 29.44-1.92 34.816-2.56 30.976-3.84 52.48-13.184 69.12-30.08 9.28-9.408 14.784-18.112 19.264-30.464 2.816-7.808 3.2-10.752 3.2-24.64 0-14.08-0.256-16.64-3.328-25.408a77.248 77.248 0 0 0-14.72-26.624l-4.352-4.8z m-52.032-125.248c-0.384 0-0.64 6.464-0.64 14.336 0 53.568 32.192 85.312 123.52 121.856 60.8 24.32 85.76 36.928 104.256 52.736 16.256 13.888 25.984 32.448 26.88 51.52 0.192 3.584 0.896 6.208 1.536 6.016 2.496-0.832 11.84-21.568 14.912-33.152 3.84-14.528 5.248-42.24 2.88-56.96-8.256-50.816-42.752-88.128-98.496-106.496-17.536-5.76-36.544-9.728-70.336-14.656-57.408-8.32-78.144-14.656-96.64-29.44a69.312 69.312 0 0 0-7.872-5.76z m-128.384 41.472a49.408 49.408 0 0 0-28.352-2.688 41.28 41.28 0 0 0-25.024 27.136c-2.048 7.424-0.896 20.48 2.112 24.512 4.928 6.464 9.6 8.192 22.464 8.128 25.152-0.192 46.976-10.88 49.472-24.32 2.112-10.88-7.488-26.112-20.672-32.768z m-34.88 15.232c0-11.776 18.944-18.112 31.488-10.496 6.592 4.032 8.32 9.92 4.416 15.36-2.688 3.84-10.88 7.36-16.96 7.36-9.088 0-18.944-6.4-18.944-12.224z m-33.28-248.384l-5.248 0.384c-4.544 0.704-4.16 0.896 5.504 2.368 35.072 5.44 62.464 19.2 90.304 45.568 12.288 11.584 24.64 25.984 44.608 52.032 44.928 58.624 64 74.88 101.824 87.168 22.208 7.232 44.672 10.56 84.288 12.672 43.84 2.304 60.416 5.76 76.096 16.064 8.64 5.76 15.488 12.8 22.208 23.232l3.904 6.08-0.768-6.656c-3.2-25.6-21.504-61.44-44.864-87.68l-4.224-4.8-2.176 9.6c-5.44 24.32-17.088 41.728-27.904 41.728a14.08 14.08 0 0 1-12.608-7.936c-2.368-5.696-2.176-7.744 1.408-14.4 6.528-12.288 8.192-28.608 4.928-49.984a51.072 51.072 0 0 0-3.072-12.864c-2.368-2.816-21.312-13.824-33.28-19.328-43.648-20.032-95.872-26.56-147.2-18.368l-12.16 1.92-8.512-9.344c-32-35.456-62.08-55.424-94.976-63.232-14.144-3.328-34.688-5.12-43.328-3.84z m355.2 13.888a42.24 42.24 0 0 0-3.904 7.552c-4.8 10.496-7.168 22.016-8.128 39.424-0.64 11.264-1.28 15.104-2.624 15.616-1.984 0.704-4.672-0.064-20.928-6.272-10.88-4.224-38.016-12.096-38.784-11.264a97.92 97.92 0 0 0 12.608 6.08c7.104 3.2 18.752 9.152 25.792 13.312 27.776 16.32 32.512 25.856 32.64 65.6 0 19.776-0.32 22.4-2.752 28.352-3.328 8-2.752 9.472 0.896 2.432 6.784-13.12 9.6-26.24 9.984-46.656 0.256-13.056 0.64-15.872 2.56-17.664 1.92-2.048 2.432-2.048 5.76-0.384 4.864 2.56 27.008 20.032 36.608 28.992l7.808 7.232-7.808-10.176a379.648 379.648 0 0 0-21.248-23.808l-5.248-5.44c-21.888-22.208-23.68-25.216-26.688-45.76-2.368-16.256-1.792-30.208 1.664-40.32a26.048 26.048 0 0 0 1.856-6.848z m-364.48 7.04l-0.832 9.472c-2.56 30.656 9.536 71.68 29.056 98.368 15.168 20.736 38.656 36.864 56 38.4 11.328 1.024 14.72-2.496 9.6-9.92a187.776 187.776 0 0 1-18.24-33.152 359.488 359.488 0 0 1-6.912-27.84c-8.192-37.76-16.192-52.48-34.688-63.616a112.064 112.064 0 0 0-29.504-10.88l-4.48-0.832z" fill="#FF0077" p-id="4419"></path></svg>