<?xml version="1.0" standalone="no"?><!DOCTYPE svg PUBLIC "-//W3C//DTD SVG 1.1//EN" "http://www.w3.org/Graphics/SVG/1.1/DTD/svg11.dtd"><svg t="1710229537538" class="icon" viewBox="0 0 1024 1024" version="1.1" xmlns="http://www.w3.org/2000/svg" p-id="4277" xmlns:xlink="http://www.w3.org/1999/xlink" width="200" height="200"><path d="M343.04 97.28c46.08 5.12 81.92 25.6 117.76 61.44 15.36 15.36 30.72 35.84 56.32 66.56 61.44 76.8 81.92 97.28 133.12 112.64 30.72 10.24 56.32 15.36 112.64 15.36 56.32 5.12 81.92 10.24 102.4 20.48l30.72 30.72 5.12 10.24v-10.24c-5.12-35.84-30.72-81.92-61.44-117.76l-5.12-5.12-5.12 10.24c-5.12 30.72-20.48 56.32-35.84 56.32-5.12 0-15.36-5.12-15.36-10.24-5.12-5.12-5.12-10.24 0-20.48 10.24-10.24 10.24-30.72 5.12-61.44 0-10.24-5.12-15.36-5.12-15.36-5.12-5.12-25.6-20.48-46.08-25.6-56.32-25.6-128-35.84-194.56-25.6l-15.36 5.12-10.24-10.24c-35.84-51.2-76.8-76.8-117.76-87.04-20.48-5.12-46.08-5.12-61.44-5.12-5.12 0-5.12 0 10.24 5.12zM440.32 312.32c15.36 0 20.48-5.12 10.24-10.24-5.12-15.36-20.48-35.84-20.48-46.08 0-5.12-5.12-20.48-10.24-35.84-10.24-51.2-20.48-71.68-46.08-81.92-10.24-10.24-25.6-15.36-40.96-15.36h-5.12v10.24c-5.12 40.96 15.36 92.16 40.96 128 15.36 30.72 51.2 51.2 71.68 51.2zM962.56 552.96c-10.24-66.56-56.32-117.76-128-138.24-25.6-5.12-46.08-15.36-92.16-20.48-76.8-10.24-102.4-20.48-128-40.96-5.12-5.12-10.24-5.12-10.24-5.12v20.48c0 71.68 40.96 112.64 163.84 158.72 81.92 30.72 112.64 46.08 138.24 71.68 20.48 20.48 35.84 40.96 35.84 66.56v10.24c5.12 0 15.36-30.72 20.48-46.08v-76.8z" p-id="4278"></path><path d="M762.88 194.56c35.84 20.48 40.96 35.84 40.96 87.04 0 25.6 0 30.72-5.12 35.84-5.12 10.24-5.12 10.24 0 5.12 10.24-15.36 10.24-35.84 15.36-61.44 0-15.36 0-20.48 5.12-25.6 5.12-5.12 5.12-5.12 5.12 0 5.12 5.12 35.84 25.6 46.08 35.84l10.24 10.24-10.24-15.36c-5.12-5.12-20.48-25.6-35.84-40.96-30.72-30.72-30.72-30.72-35.84-61.44-5.12-20.48 0-40.96 0-51.2 0-5.12 5.12-10.24 0-10.24 0 5.12-5.12 5.12-5.12 10.24-5.12 15.36-10.24 30.72-10.24 51.2 0 15.36 0 20.48-5.12 20.48s-5.12 0-25.6-10.24c-15.36-5.12-51.2-15.36-51.2-15.36 5.12 5.12 10.24 5.12 15.36 10.24 20.48 15.36 35.84 20.48 46.08 25.6zM599.04 665.6c-5.12 0-30.72 5.12-56.32 10.24-46.08 10.24-71.68 15.36-92.16 25.6l-30.72 15.36h10.24c25.6-10.24 56.32-15.36 102.4-15.36 20.48 0 40.96 0 46.08-5.12 40.96-5.12 66.56-15.36 92.16-40.96 10.24-10.24 20.48-25.6 25.6-40.96 5.12-10.24 5.12-15.36 5.12-30.72 0-20.48 0-20.48-5.12-35.84-5.12-15.36-10.24-25.6-20.48-35.84h-5.12l5.12 10.24c0 10.24 5.12 15.36 5.12 25.6 5.12 51.2-25.6 97.28-81.92 117.76zM890.88 650.24c-20.48-25.6-46.08-46.08-97.28-71.68-40.96-20.48-56.32-30.72-61.44-35.84-5.12 0-5.12-5.12-10.24-5.12 0 0 0 5.12-5.12 5.12-10.24 30.72-5.12 61.44 10.24 97.28 10.24 15.36 15.36 30.72 46.08 76.8 25.6 40.96 40.96 66.56 51.2 87.04 10.24 30.72 10.24 61.44-5.12 92.16v15.36s5.12-5.12 15.36-5.12c46.08-25.6 76.8-66.56 87.04-117.76 5.12-15.36 5.12-56.32 5.12-71.68-10.24-25.6-20.48-46.08-35.84-66.56zM645.12 972.8c-10.24-10.24-20.48-25.6-25.6-46.08 0-5.12-5.12-20.48-5.12-35.84-5.12-40.96-15.36-61.44-25.6-81.92-15.36-20.48-46.08-40.96-76.8-46.08-25.6-5.12-51.2-5.12-76.8-5.12-51.2 10.24-107.52 35.84-148.48 71.68l-15.36 10.24h10.24c61.44 10.24 76.8 15.36 117.76 61.44 25.6 25.6 30.72 30.72 51.2 35.84 30.72 5.12 56.32-5.12 66.56-30.72 5.12-10.24 5.12-30.72 0-40.96-10.24-25.6-46.08-30.72-66.56-15.36-15.36 15.36-10.24 35.84 10.24 40.96 5.12 0 5.12 0 0 0-10.24-5.12-10.24-10.24-10.24-15.36 0-20.48 20.48-30.72 40.96-20.48 15.36 5.12 20.48 15.36 20.48 30.72 0 10.24-5.12 20.48-10.24 25.6s-20.48 10.24-30.72 10.24c-15.36 0-25.6-10.24-35.84-20.48-20.48-20.48-10.24-56.32 15.36-71.68 20.48-10.24 51.2-10.24 71.68 5.12 25.6 15.36 35.84 30.72 56.32 81.92 5.12 15.36 10.24 25.6 20.48 40.96 20.48 30.72 46.08 46.08 71.68 46.08 15.36 0 30.72-5.12 46.08-10.24 10.24-5.12 25.6-15.36 25.6-15.36-5.12 0-5.12 0-10.24 5.12-35.84 5.12-66.56 0-87.04-10.24zM430.08 399.36c-10.24-5.12-25.6-5.12-35.84-5.12-15.36 5.12-30.72 20.48-30.72 35.84-5.12 10.24-5.12 30.72 0 35.84 5.12 10.24 10.24 10.24 30.72 10.24 30.72 0 61.44-15.36 66.56-30.72 0-15.36-10.24-35.84-30.72-46.08zM291.84 742.4c0-15.36 0-15.36-5.12-25.6-5.12-15.36-15.36-25.6-40.96-40.96-30.72-20.48-46.08-40.96-51.2-66.56-5.12-20.48 0-35.84 20.48-71.68 20.48-40.96 25.6-56.32 25.6-97.28 0-25.6 5.12-35.84 10.24-46.08 10.24-10.24 15.36-10.24 35.84-15.36 30.72-5.12 51.2-10.24 66.56-25.6 15.36-10.24 20.48-25.6 20.48-46.08v-15.36l-5.12 5.12C337.92 266.24 66.56 25.6 61.44 25.6c0 0 10.24 10.24 20.48 25.6 143.36 168.96 240.64 240.64 250.88 256 10.24 10.24 5.12 25.6-10.24 30.72-10.24 5.12-20.48 10.24-35.84 10.24-10.24 0-15.36-5.12-15.36-5.12-5.12-5.12-5.12-5.12-35.84-56.32-25.6-40.96-51.2-76.8-76.8-117.76l71.68 128c10.24 25.6 0 35.84 0 40.96 0 10.24 0 10.24-10.24 25.6-15.36 20.48-20.48 40.96-25.6 81.92-5.12 46.08-20.48 81.92-66.56 138.24-25.6 35.84-30.72 40.96-40.96 51.2-10.24 15.36-10.24 25.6-10.24 46.08s0 35.84 10.24 61.44c5.12 20.48 10.24 30.72 30.72 56.32 15.36 20.48 20.48 35.84 20.48 46.08 0 5.12 0 5.12 20.48 0 51.2-10.24 97.28-30.72 117.76-56.32 10.24-15.36 15.36-20.48 15.36-46.08z" p-id="4279"></path></svg>